<svg xmlns="http://www.w3.org/2000/svg" width="7" height="7" viewBox="0 0 7 7" shape-rendering="crispEdges">
  <rect x="2" y="0" width="1" height="1" fill="#a5e2ff"/><rect x="3" y="0" width="1" height="1" fill="#a5e2ff"/>
  <rect x="1" y="1" width="1" height="1" fill="#a5e2ff"/><rect x="2" y="1" width="1" height="1" fill="#3a9dff"/><rect x="3" y="1" width="1" height="1" fill="#ffffff"/><rect x="4" y="1" width="1" height="1" fill="#a5e2ff"/>
  <rect x="0" y="2" width="1" height="1" fill="#a5e2ff"/><rect x="1" y="2" width="1" height="1" fill="#3a9dff"/><rect x="2" y="2" width="1" height="1" fill="#3a9dff"/><rect x="3" y="2" width="1" height="1" fill="#3a9dff"/><rect x="4" y="2" width="1" height="1" fill="#3a9dff"/><rect x="5" y="2" width="1" height="1" fill="#a5e2ff"/>
  <rect x="0" y="3" width="1" height="1" fill="#a5e2ff"/><rect x="1" y="3" width="1" height="1" fill="#3a9dff"/><rect x="2" y="3" width="1" height="1" fill="#3a9dff"/><rect x="3" y="3" width="1" height="1" fill="#3a9dff"/><rect x="4" y="3" width="1" height="1" fill="#3a9dff"/><rect x="5" y="3" width="1" height="1" fill="#3a9dff"/><rect x="6" y="3" width="1" height="1" fill="#a5e2ff"/>
  <rect x="0" y="4" width="1" height="1" fill="#a5e2ff"/><rect x="1" y="4" width="1" height="1" fill="#3a9dff"/><rect x="2" y="4" width="1" height="1" fill="#3a9dff"/><rect x="3" y="4" width="1" height="1" fill="#3a9dff"/><rect x="4" y="4" width="1" height="1" fill="#3a9dff"/><rect x="5" y="4" width="1" height="1" fill="#a5e2ff"/>
  <rect x="1" y="5" width="1" height="1" fill="#a5e2ff"/><rect x="2" y="5" width="1" height="1" fill="#3a9dff"/><rect x="3" y="5" width="1" height="1" fill="#3a9dff"/><rect x="4" y="5" width="1" height="1" fill="#a5e2ff"/>
  <rect x="2" y="6" width="1" height="1" fill="#a5e2ff"/><rect x="3" y="6" width="1" height="1" fill="#a5e2ff"/>
</svg>